PathFileType	4	(X/Y/Z)	Kaydara																																																																																																																									
DataRate	CameraRate	NumFrames	NumMarkers	Units	OrigDataRate	OrigDataStartFrame	OrigNumFrames																																																																																																																					
30	30	6	41	mm	30	16	125																																																																																																																					
Frame#	Time	EMLA_LFHD			EMLA_RFHD			EMLA_LBHD			EMLA_RBHD			EMLA_LFTShould			EMLA_RFTShould			EMLA_LRRShould			EMLA_RRRShould			EMLA_T10			EMLA_STRN			EMLA_TRUN			EMLA_LSHO			EMLA_LUPA			EMLA_LELB			EMLA_LFRM			EMLA_LWRA			EMLA_LWRB			EMLA_LFIN			EMLA_RSHO			EMLA_RUPA			EMLA_RELB			EMLA_RFRM			EMLA_RWRA			EMLA_RWRB			EMLA_RFIN			EMLA_LFWT			EMLA_RFWT			EMLA_LBWT			EMLA_RBWT			EMLA_LTHI			EMLA_LKNE			EMLA_LSHN			EMLA_LANK			EMLA_LHEE			EMLA_LTOE			EMLA_RTHI			EMLA_RKNE			EMLA_RSHN			EMLA_RANK			EMLA_RHEE			EMLA_RTOE		
		X1	Y1	Z1	X2	Y2	Z2	X3	Y3	Z3	X4	Y4	Z4	X5	Y5	Z5	X6	Y6	Z6	X7	Y7	Z7	X8	Y8	Z8	X9	Y9	Z9	X10	Y10	Z10	X11	Y11	Z11	X12	Y12	Z12	X13	Y13	Z13	X14	Y14	Z14	X15	Y15	Z15	X16	Y16	Z16	X17	Y17	Z17	X18	Y18	Z18	X19	Y19	Z19	X20	Y20	Z20	X21	Y21	Z21	X22	Y22	Z22	X23	Y23	Z23	X24	Y24	Z24	X25	Y25	Z25	X26	Y26	Z26	X27	Y27	Z27	X28	Y28	Z28	X29	Y29	Z29	X30	Y30	Z30	X31	Y31	Z31	X32	Y32	Z32	X33	Y33	Z33	X34	Y34	Z34	X35	Y35	Z35	X36	Y36	Z36	X37	Y37	Z37	X38	Y38	Z38	X39	Y39	Z39	X40	Y40	Z40	X41	Y41	Z41
																																																																																																																												
16	0.51	266.2676	1638.94302	-1947.9715	96.3088	1636.08521	-1955.16815	286.3615	1625.12756	-2097.86011	91.85768	1624.90311	-2107.81464	268.36142	1404.26147	-1997.89398	117.98498	1396.17096	-2000.92209	264.01815	1447.91351	-2149.13177	107.84159	1438.95752	-2150.9903	199.1157	1271.04492	-2190.8493	192.47229	1336.67831	-1959.66736	187.7747	1234.3187	-1937.43683	395.49911	1423.99918	-2052.63306	450.48248	1238.60756	-2057.13547	466.18492	1097.18399	-2048.45901	463.71662	961.73683	-2028.41324	377.89055	828.76747	-1936.30966	435.06927	802.51144	-1992.88498	428.14575	776.52336	-1927.8833	-3.39817	1423.60672	-2071.2912	-59.15802	1227.53891	-2066.74438	-73.26657	1084.56848	-2079.11011	-76.85079	984.2231	-2080.69672	-20.10234	826.25748	-1971.29486	-64.33219	804.19403	-2039.70139	-82.13439	780.66208	-1980.60806	291.34174	994.30641	-1949.95819	56.05513	984.76959	-1975.91049	279.72696	1012.40768	-2150.96924	104.17454	1015.0737	-2154.59442	321.60019	728.32977	-2135.34912	323.53756	522.55871	-2096.61499	297.68261	340.05638	-2090.54535	299.41479	164.4426	-2165.82794	232.88967	85.53485	-2225.26199	270.37668	74.229	-2027.68021	66.36098	711.91269	-2160.85037	29.75795	512.71858	-2097.32269	71.1406	289.61355	-2090.53665	32.49019	128.82131	-2170.49072	87.53792	78.00032	-2224.40384	55.88521	72.0387	-2022.54456
17	0.543	266.55081	1638.60977	-1946.70135	96.54298	1636.05972	-1954.08722	286.82436	1625.30701	-2096.77383	92.21825	1625.30792	-2106.73645	268.18594	1404.09683	-1996.68213	118.69858	1396.98059	-1998.86475	264.33617	1448.03528	-2148.29559	108.16454	1439.07394	-2150.32806	199.49865	1271.1657	-2190.13077	192.37713	1336.68839	-1958.97446	187.70994	1234.24469	-1936.77597	395.56549	1424.06174	-2051.42044	450.61344	1238.76434	-2055.46722	466.15913	1097.22633	-2046.09741	462.45888	962.05757	-2025.24231	374.31324	830.56007	-1932.29599	431.79115	803.06343	-1988.10471	423.96202	777.8064	-1922.98599	-3.15743	1423.67645	-2070.66208	-59.05931	1227.69302	-2066.51062	-73.38661	1084.71184	-2079.00375	-76.61112	984.19403	-2080.16479	-18.98329	826.88675	-1970.09094	-63.18389	804.57932	-2038.66791	-80.55634	780.29213	-1979.94461	291.72739	994.26971	-1949.45572	56.3806	984.84016	-1975.60974	280.23558	1012.63847	-2150.41443	104.65195	1015.22499	-2154.21249	321.71947	728.36227	-2135.29037	323.7117	522.56954	-2096.78802	297.83449	340.07454	-2090.73395	299.45444	164.40969	-2165.90576	232.89997	85.51039	-2225.24429	270.42973	74.22122	-2027.69318	67.16892	711.81183	-2160.61127	29.94278	512.70279	-2097.41379	71.15765	289.59446	-2090.55008	32.57662	128.90366	-2170.51651	87.66093	78.00577	-2224.37332	55.83077	72.06301	-2022.56683
18	0.577	266.97411	1638.45184	-1945.61737	96.86482	1636.04919	-1953.01483	287.13081	1625.26184	-2095.51697	92.5825	1625.61478	-2105.69687	268.10278	1404.17404	-1995.81497	118.71929	1396.77109	-1998.61984	264.57472	1448.14911	-2147.4144	108.40873	1439.16138	-2149.69833	199.91585	1271.27899	-2189.45526	192.68478	1336.59836	-1958.0043	187.69173	1234.22905	-1936.13647	395.51586	1424.14963	-2049.99832	450.82882	1239.01215	-2053.89984	466.50257	1097.42432	-2044.41849	461.53683	961.92581	-2022.33398	371.24985	832.47101	-1929.11057	428.87993	803.72765	-1984.05624	420.24776	779.21974	-1918.79913	-2.97553	1423.71765	-2070.24384	-58.95143	1227.84035	-2065.94803	-73.42219	1084.74602	-2078.44757	-76.27158	984.01756	-2079.1243	-17.6705	827.41333	-1968.12378	-61.75997	804.91035	-2036.74362	-78.53322	779.99367	-1978.27728	291.60479	993.94379	-1948.87802	56.28987	984.65569	-1975.58899	280.71756	1012.68967	-2149.76135	105.18164	1015.31944	-2153.94821	322.02248	728.31276	-2134.85062	323.82435	522.51575	-2096.59912	297.87241	340.06668	-2090.65811	299.50315	164.44204	-2165.83542	232.96095	85.51421	-2225.30701	270.40751	74.20615	-2027.67044	67.68607	711.76094	-2160.41397	30.1023	512.69012	-2097.54562	71.17214	289.57474	-2090.61234	32.63205	128.95783	-2170.58762	87.71609	77.98925	-2224.37668	55.8132	72.07709	-2022.59552
19	0.61	267.15658	1638.16895	-1944.43146	97.3988	1635.95596	-1951.92139	287.43397	1625.2626	-2094.39133	92.96389	1625.86517	-2104.711	268.22857	1404.18625	-1994.85764	118.13518	1396.8869	-1998.41705	264.85615	1448.15964	-2146.44775	108.7244	1439.26788	-2149.11743	200.30684	1271.33278	-2188.75443	192.91599	1336.5152	-1957.08282	187.48888	1234.25797	-1935.345	395.5521	1424.16245	-2048.70697	451.18984	1239.188	-2052.72751	466.88534	1097.42126	-2043.08212	460.83199	962.06177	-2020.32562	368.89668	833.86307	-1926.60156	426.47602	804.12079	-1980.94131	417.24964	780.23315	-1915.52841	-2.79771	1423.70819	-2069.90326	-58.75956	1227.98355	-2065.34714	-73.29779	1084.71581	-2077.59232	-75.82754	983.74603	-2077.612	-15.90774	828.20274	-1965.71884	-60.20545	805.14481	-2034.06952	-76.33355	780.04227	-1975.59387	291.4629	993.89046	-1948.13934	56.13885	984.56436	-1975.47989	281.06628	1012.72545	-2149.02863	105.58337	1015.36911	-2153.65356	322.45453	728.25073	-2134.24103	323.88882	522.4456	-2096.15036	297.87939	340.06096	-2090.41229	299.61639	164.46527	-2165.75165	233.05996	85.63181	-2225.22461	270.39196	74.21495	-2027.64297	68.03851	711.77628	-2160.46844	30.17972	512.70691	-2097.78229	71.2001	289.61233	-2090.72678	32.68548	128.89061	-2170.63034	87.76907	77.96229	-2224.38889	55.80303	72.06933	-2022.6059
20	0.643	267.30793	1637.94922	-1943.38196	97.57904	1635.89539	-1951.12061	287.75333	1625.18158	-2093.37387	93.26263	1625.88043	-2103.79807	268.24284	1404.14551	-1993.80585	118.19436	1396.90292	-1997.96646	265.19855	1448.17551	-2145.49911	109.17943	1439.51355	-2148.51318	200.61172	1271.42311	-2188.04688	192.19355	1336.78268	-1956.8338	187.3674	1234.03778	-1934.87701	395.85377	1424.31717	-2047.95197	451.36997	1239.14497	-2051.50665	467.00485	1097.26692	-2041.66473	460.19989	961.65535	-2018.396	367.03289	834.59305	-1924.9295	424.82693	804.24782	-1978.815	415.07385	780.65887	-1913.3432	-2.40385	1423.52814	-2069.32617	-58.46455	1227.97363	-2064.6759	-73.34198	1084.62715	-2076.66016	-75.4926	983.30101	-2075.83084	-14.23168	828.9843	-1962.892	-58.74039	805.14862	-2030.6929	-74.35611	780.54115	-1971.89896	291.2653	993.7011	-1947.44919	55.97624	984.50348	-1975.21103	281.20296	1012.77245	-2148.29376	105.74467	1015.35233	-2153.25531	322.6347	728.27866	-2133.69843	323.86459	522.4506	-2095.8786	297.87899	340.07572	-2090.30472	299.6666	164.54784	-2165.68192	233.12685	85.68884	-2225.2919	270.37342	74.18889	-2027.63763	68.06529	711.82587	-2160.4512	30.18289	512.63924	-2097.84317	71.18764	289.59152	-2090.74371	32.7202	128.85927	-2170.65552	87.79115	77.92585	-2224.36951	55.80254	72.0692	-2022.60651
21	0.677	267.6515	1637.81204	-1942.39395	97.76496	1635.79163	-1950.13565	288.05546	1624.90982	-2092.27997	93.54497	1625.69412	-2102.86041	268.24118	1403.95416	-1992.69424	118.37368	1396.4798	-1997.26501	265.59534	1448.19885	-2144.35989	109.56834	1439.71024	-2147.61322	200.9547	1271.59683	-2187.27692	192.35998	1336.4093	-1956.01105	187.52722	1233.69125	-1934.15527	396.13308	1424.24286	-2046.66458	451.37299	1238.97743	-2050.10818	466.73096	1096.97365	-2040.09949	459.72549	961.24023	-2016.85013	365.95398	834.36813	-1923.99338	423.9809	804.00848	-1977.65793	413.96496	780.44434	-1912.24045	-2.03817	1423.172	-2068.5733	-58.29787	1227.68623	-2063.97873	-73.72262	1084.31625	-2075.65872	-75.57671	982.64832	-2073.72406	-12.99518	830.15526	-1959.22653	-58.00159	805.02602	-2026.39359	-72.79506	781.31821	-1966.98792	291.0848	993.50853	-1946.79474	55.73418	984.27673	-1974.87427	281.13134	1012.71828	-2147.73972	105.69759	1015.39978	-2152.84698	322.54063	728.26981	-2133.31284	323.73192	522.38503	-2095.71182	297.70041	340.06226	-2090.23453	299.64081	164.52242	-2165.65857	233.13932	85.67352	-2225.25925	270.32646	74.18582	-2027.62192	67.84601	711.89034	-2160.30533	30.10852	512.62516	-2097.63672	71.16626	289.54617	-2090.66956	32.66927	128.83086	-2170.65292	87.7605	77.91254	-2224.38843	55.80247	72.0692	-2022.60681
